<?xml version="1.0" standalone="no"?>
<!DOCTYPE svg PUBLIC "-//W3C//DTD SVG 20010904//EN"
 "http://www.w3.org/TR/2001/REC-SVG-20010904/DTD/svg10.dtd">
<svg version="1.0" xmlns="http://www.w3.org/2000/svg"
 width="555.000000pt" height="555.000000pt" viewBox="0 0 555.000000 555.000000"
 preserveAspectRatio="xMidYMid meet">

<g transform="translate(0.000000,555.000000) scale(0.100000,-0.100000)"
fill="#000000" stroke="none">
<path d="M2735 5176 c-60 -34 -159 -89 -220 -123 -285 -156 -958 -528 -1255
-694 -47 -26 -236 -130 -420 -232 l-335 -186 -3 -1203 c-2 -1138 -1 -1204 15
-1214 33 -21 229 -122 898 -467 369 -190 801 -413 960 -496 160 -84 341 -178
402 -209 l113 -57 77 41 c256 136 617 327 953 504 212 112 498 262 635 335
138 73 306 162 375 198 69 36 163 86 210 111 l85 45 3 1208 2 1209 -162 89
c-90 48 -253 139 -363 200 -110 61 -252 140 -315 175 -63 35 -196 109 -295
165 -99 56 -250 139 -335 185 -85 46 -317 173 -515 282 -198 109 -369 198
-380 197 -11 0 -69 -28 -130 -63z m151 -115 c8 -9 245 -140 634 -353 202 -111
984 -541 1205 -663 83 -45 170 -93 194 -105 l44 -22 -109 -58 c-60 -31 -354
-188 -654 -347 -300 -160 -717 -381 -926 -491 l-381 -201 -159 83 c-242 126
-660 344 -949 493 -143 74 -296 154 -340 178 -44 23 -207 108 -363 189 -155
82 -280 151 -277 156 6 9 81 52 585 330 874 482 1173 648 1320 731 85 48 157
88 161 88 3 1 9 -3 15 -8z m-1927 -1407 c157 -80 290 -149 295 -155 6 -5 -63
-9 -187 -9 l-197 0 2 -856 3 -855 330 -173 c182 -94 402 -209 490 -255 88 -46
273 -143 410 -216 138 -72 312 -164 388 -203 l137 -72 0 965 c0 766 3 965 13
965 6 -1 62 -26 122 -58 l110 -57 3 -1087 c2 -867 0 -1088 -10 -1088 -11 0
-1035 525 -1930 990 l-278 144 0 1083 c0 596 3 1083 6 1083 4 0 136 -65 293
-146z m4119 -945 l-3 -1071 -125 -67 c-120 -65 -914 -485 -1478 -782 -147 -78
-309 -163 -359 -191 l-93 -49 0 125 0 125 158 84 c370 199 1177 627 1422 754
l265 138 3 950 2 950 93 51 c50 29 98 52 105 53 10 1 12 -216 10 -1070z m-465
44 l-2 -698 -133 -73 c-73 -40 -165 -90 -205 -112 l-72 -38 -63 111 c-35 62
-81 147 -103 189 -22 43 -43 78 -46 78 -3 0 -49 -132 -104 -292 -54 -161 -102
-300 -106 -309 -5 -10 -57 -44 -116 -77 -155 -87 -385 -212 -389 -212 -2 0 -4
327 -4 728 l0 727 143 75 c78 41 147 76 152 78 7 2 9 -180 7 -535 -1 -295 -1
-535 2 -532 2 2 42 114 89 249 47 135 105 300 129 368 l43 124 113 58 113 58
23 -36 c167 -261 236 -373 236 -382 0 -5 5 -10 10 -10 7 0 10 161 9 505 -1
278 1 509 5 513 10 10 249 140 261 141 7 1 9 -236 8 -696z m-3054 431 c198
-102 300 -156 571 -299 69 -36 158 -82 198 -103 l72 -36 0 -168 c0 -92 -2
-168 -4 -168 -3 0 -206 106 -453 234 -246 129 -456 238 -466 242 -16 6 -17
-12 -15 -332 l3 -338 150 -78 c83 -43 256 -133 385 -200 129 -67 272 -141 318
-165 l83 -43 2 -175 c1 -96 0 -175 -3 -175 -3 0 -88 44 -190 98 -102 54 -382
201 -622 327 l-438 230 3 579 2 578 85 49 c47 27 91 49 99 49 8 0 107 -48 220
-106z"/>
<path d="M2745 4634 c-66 -40 -124 -75 -130 -77 -14 -7 14 -27 143 -101 l113
-66 109 65 c59 36 120 71 134 79 26 13 25 14 -91 83 -65 39 -127 75 -138 80
-16 8 -42 -4 -140 -63z"/>
<path d="M2287 4388 c-76 -44 -136 -82 -135 -83 2 -2 65 -39 142 -84 l138 -81
117 70 c64 38 124 75 135 83 17 13 8 20 -119 95 -75 45 -138 82 -139 82 0 0
-63 -37 -139 -82z"/>
<path d="M3162 4388 l-134 -80 94 -57 c51 -32 113 -69 138 -83 l45 -26 138 80
c75 44 135 83 132 88 -4 7 -272 161 -278 159 -1 0 -62 -36 -135 -81z"/>
<path d="M2732 4139 c-73 -45 -132 -82 -130 -84 2 -1 62 -37 135 -79 l131 -77
134 77 c73 42 134 78 136 79 2 2 -249 155 -267 163 -4 1 -66 -34 -139 -79z"/>
</g>
</svg>
